<svg id="Capa_1" enable-background="new 0 0 511.922 511.922" height="512" viewBox="0 0 511.922 511.922" width="512" xmlns="http://www.w3.org/2000/svg"><g><g><path d="m511.609 223.817c-59.47-52.038-2.702-2.801-60.648-53.222v-105.673h-90v26.938l-105-91.86c-7.529 6.582-248.123 217.232-255.648 223.817l19.687 22.618 10.961-9.674v275.161h450v-275.161l10.961 9.674zm-225.648 21.105c24.814 0 45 20.186 45 45h-30c0-8.276-6.724-15-15-15zm69.097 188.027c-14.619 14.619-33.823 21.929-53.042 21.929-19.204 0-38.408-7.31-53.027-21.929l-106.055-106.054c-29.238-29.238-29.238-76.831 0-106.069l31.816-31.816 84.844 84.844-10.591 10.605c-5.859 5.845-5.859 15.381 0 21.226l21.196 21.196c5.83 5.874 15.396 5.845 21.226 0l10.605-10.591 84.844 84.844zm5.903-143.027c0-41.353-33.647-75-75-75v-30c57.891 0 105 47.109 105 105z"/><path d="m248.988 348.12v-.015l-21.211-21.211c-13.813-13.828-16.743-34.497-8.789-51.226l-44.238-44.238-10.605 10.605c-17.549 17.549-17.549 46.099 0 63.647l106.055 106.055c17.563 17.549 46.113 17.549 63.647 0l10.605-10.605-44.238-44.238c-16.743 7.911-37.383 5.04-51.226-8.774z"/></g></g></svg>